<svg width="16" height="14" viewBox="0 0 16 14" fill="none" xmlns="http://www.w3.org/2000/svg">
<path d="M0 4.1442V7.33815H6.99499V0L2.85079 4.1442H0Z" fill="#BA9554"/>
<path d="M0 9.58182V7.33815H6.99499V13.726L2.85079 9.58182H0Z" fill="#BA9554"/>
<path d="M13.2389 1.59718C14.5844 2.95635 15.4154 4.82581 15.4154 6.88941C15.4154 8.96719 14.573 10.8482 13.2112 12.2096L12.0913 11.0898C13.1665 10.0149 13.8316 8.52984 13.8316 6.88941C13.8316 5.26315 13.1779 3.78961 12.1191 2.71706L13.2389 1.59718Z" fill="#BA9554"/>
<path d="M10.9991 3.83699C11.7714 4.62291 12.2478 5.7005 12.2478 6.88941C12.2478 8.09249 11.76 9.1816 10.9714 9.96983L9.85151 8.84995C10.3535 8.34833 10.6641 7.65515 10.6641 6.88941C10.6641 6.13785 10.3649 5.45618 9.87919 4.95692L10.9991 3.83699Z" fill="#BA9554"/>
</svg>
