<svg width="31" height="21" viewBox="0 0 31 21" fill="none" xmlns="http://www.w3.org/2000/svg">
<path d="M23.5208 2.17449C22.3913 1.04504 20.825 0.342773 19.1033 0.342773H11.2845C9.56284 0.342773 7.9965 1.04504 6.87029 2.17449C5.74084 3.30394 5.03857 4.87028 5.03857 6.59197V14.4108C5.03857 16.1325 5.74084 17.6988 6.87029 18.825C7.99974 19.9545 9.56608 20.6567 11.2878 20.6567H19.1065C20.8282 20.6567 22.3945 19.9545 23.5208 18.825C24.6502 17.6956 25.3525 16.1292 25.3525 14.4075V6.58873C25.3525 4.86705 24.6502 3.30071 23.5208 2.17449ZM23.8023 14.4075C23.8023 15.7053 23.278 16.8736 22.4237 17.7279C21.5693 18.5791 20.401 19.1066 19.1065 19.1066H11.2878C9.99003 19.1066 8.82174 18.5823 7.96737 17.7279C7.11624 16.8736 6.58874 15.7053 6.58874 14.4108V6.59197C6.58874 5.29423 7.113 4.12595 7.96737 3.27158C8.82174 2.42045 9.99002 1.89294 11.2845 1.89294H19.1033C20.401 1.89294 21.5693 2.41721 22.4237 3.27158C23.2748 4.12595 23.8023 5.29423 23.8023 6.58873V14.4075Z" fill="#DAB45F"/>
<path d="M15.1972 5.62794C13.8542 5.62794 12.6309 6.17487 11.7539 7.05513C10.8736 7.93538 10.3234 9.15869 10.3267 10.4985C10.3267 11.8415 10.8736 13.0648 11.7539 13.9418C12.6341 14.8221 13.8574 15.3723 15.1972 15.369C16.5402 15.369 17.7636 14.8221 18.6406 13.9418C19.5208 13.0616 20.071 11.8383 20.0678 10.4985C20.0678 9.15545 19.5208 7.93215 18.6406 7.05513C17.7603 6.17487 16.537 5.62471 15.1972 5.62794ZM17.5467 12.8512C16.9415 13.4532 16.1163 13.8253 15.1972 13.8253C14.2781 13.8253 13.4529 13.4532 12.8477 12.8512C12.2458 12.246 11.8736 11.4208 11.8736 10.5017C11.8736 9.58263 12.2458 8.75739 12.8477 8.15221C13.4529 7.55027 14.2781 7.1781 15.1972 7.1781C16.1163 7.1781 16.9415 7.55027 17.5467 8.15221C18.1487 8.75739 18.5208 9.58263 18.5208 10.5017C18.5208 11.4208 18.1487 12.246 17.5467 12.8512Z" fill="#DAB45F"/>
<path d="M20.4653 6.40493C21.1106 6.40493 21.6336 5.88187 21.6336 5.23665C21.6336 4.59142 21.1106 4.06836 20.4653 4.06836C19.8201 4.06836 19.2971 4.59142 19.2971 5.23665C19.2971 5.88187 19.8201 6.40493 20.4653 6.40493Z" fill="#DAB45F"/>
</svg>
