<svg width="31" height="19" viewBox="0 0 31 19" fill="none" xmlns="http://www.w3.org/2000/svg">
<path d="M26.4707 3.74911C26.2495 2.54517 25.2138 1.66744 24.0138 1.39504C22.1033 1.01166 18.8285 0.739258 15.222 0.739258C15.2119 0.739258 15.2052 0.739258 15.1951 0.739258C15.1683 0.739258 15.1382 0.739258 15.1113 0.739258C11.5081 0.739258 8.12611 1.01166 6.32282 1.39504C5.12286 1.66744 4.08379 2.49136 3.86592 3.74911C3.64469 5.11784 3.43018 7.03472 3.43018 9.49977C3.43018 11.9649 3.64805 13.8817 3.91955 15.2505C4.14077 16.4544 5.17649 17.3321 6.37645 17.6045C8.287 17.9879 11.5618 18.2603 15.1683 18.2603C15.1784 18.2603 15.1851 18.2603 15.1951 18.2603C15.222 18.2603 15.2488 18.2603 15.2789 18.2603C18.8822 18.2603 22.2642 17.9879 24.0675 17.6045C25.2674 17.3321 26.3065 16.5082 26.5244 15.2505C26.7456 13.8817 26.9601 11.9649 26.9601 9.49977C26.9601 7.03472 26.7422 5.11784 26.4707 3.74911ZM13.1103 13.3336V5.666L19.7704 9.49977L13.1103 13.3336Z" fill="#DAB45F"/>
</svg>
