<svg width="15" height="17" viewBox="0 0 15 17" fill="none" xmlns="http://www.w3.org/2000/svg">
<g clip-path="url(#clip0_147_281)">
<path d="M7.16476 8.07584C8.3594 8.07584 9.1825 7.61385 9.98088 6.86423L10.2411 1.74286C9.44276 0.992606 8.3594 0.53125 7.16476 0.53125C5.97012 0.53125 4.88675 0.993242 4.08838 1.74286L4.34865 6.86423C5.14702 7.61449 5.97012 8.07584 7.16476 8.07584Z" fill="#DAB45F"/>
<path d="M9.64428 10.1841V10.1344L9.6137 10.1841L9.06258 8.87128C8.5017 9.11946 7.88096 9.25754 7.15025 9.25754C6.41955 9.25754 5.79815 9.12009 5.23792 8.87191L4.6868 10.1841C2.89549 10.6136 1.28769 11.5007 0 12.7104L1.20179 16.937C2.90916 16.7563 4.96008 16.6513 7.16587 16.6513C9.37165 16.6513 11.4226 16.7569 13.13 16.937L14.3317 12.7104C13.0434 11.5001 11.4356 10.6136 9.64428 10.1841Z" fill="#DAB45F"/>
</g>
<defs>
<clipPath id="clip0_147_281">
<rect width="14.875" height="17" fill="white"/>
</clipPath>
</defs>
</svg>
