<svg xmlns="http://www.w3.org/2000/svg" width="18" height="12" fill="none" viewBox="0 0 18 12"><g clip-path="url(#clip0_147_286)"><mask id="mask0_147_286" width="18" height="12" x="0" y="0" maskUnits="userSpaceOnUse" style="mask-type:luminance"><path fill="#fff" d="M0 0h18v11.998H0z"/></mask><g mask="url(#mask0_147_286)"><path fill="#0052b4" d="M18 0H0v11.998h18z"/><path fill="#f0f0f0" fill-rule="evenodd" d="M18 0v1.25l-4.526 3.016-1.04.694-1.56 1.039 1.56 1.04L18 10.748v1.25h-1.875l-5.392-3.594-.693-.463L9 7.249l-1.04.692-.693.463-5.392 3.594H0v-1.25l4.526-3.016 1.04-.694L7.126 6l-1.56-1.04-1.04-.692L0 1.25V0h1.875l5.392 3.594.693.462L9 4.75l1.04-.694.693-.462L16.125 0z" clip-rule="evenodd"/><path fill="#ff4b55" fill-rule="evenodd" d="m11.809 4.96-1.56 1.039 1.56 1.04 1.04.692L18 11.167v.832h-1.249l-6.018-4.011-.693-.463L9 6.833l-1.04.692-.693.463-6.018 4.011H0v-.832L5.152 7.73l1.04-.692 1.559-1.04-1.56-1.04-1.04-.692L0 .831V0h1.249l6.018 4.012.693.462L9 5.166l1.04-.693.693-.461L16.751 0H18v.833l-5.151 3.433z" clip-rule="evenodd"/><path fill="#f0f0f0" fill-rule="evenodd" d="M10.733 7.732v4.266H7.267V7.732H0V4.266h7.267V0h3.466v4.267H18V7.73z" clip-rule="evenodd"/><path fill="#ff4b55" fill-rule="evenodd" d="M10.04 7.039v4.959H7.96v-4.96H0V4.96h7.96V0h2.08v4.96H18v2.079z" clip-rule="evenodd"/></g></g><defs><clipPath id="clip0_147_286"><path fill="#fff" d="M0 0h18v12H0z"/></clipPath></defs></svg>