<svg xmlns="http://www.w3.org/2000/svg" width="63" height="20" fill="none" viewBox="0 0 63 20"><path fill="#e8ffff" d="M0 10 9.756 0h43.488L63 10l-9.756 10H9.756z"/><path fill="#0f144f" d="m12 8 2 2-2 2-2-2zm7.31 6-.01-.1c.37-.27.52-.52.52-1.23V8.55c0-.71-.25-1.14-.62-1.45l.03-.1h2.2l2.76 3.83v-2.5c0-.71-.15-.96-.52-1.23l.01-.1h2.72l.01.1c-.37.27-.52.52-.52 1.23V14h-1.44l-2.93-4.15v2.82c0 .71.15.96.52 1.23l-.01.1zm7.715 0-.01-.1c.37-.27.52-.52.52-1.23V8.33c0-.71-.15-.96-.52-1.23l.01-.1h5.07l.41 2.01-.1.05c-.53-.43-1.02-.6-1.68-.6h-1.39v1.23h1.08c.5 0 .75-.1 1.03-.4l.1.01v2.2l-.1.01c-.28-.3-.53-.4-1.03-.4h-1.08v1.43h1.59c.66 0 1.15-.17 1.68-.6l.1.05-.41 2.01zm6.553-5.62c-.23-.77-.45-1.01-.82-1.28l.01-.1h2.78l.01.1c-.28.26-.38.51-.2 1.2l.75 2.94L37.498 7h1.33l1.39 4.24.75-2.94c.15-.6.08-.94-.2-1.2l.01-.1h2.71l.01.1c-.37.27-.58.51-.84 1.37L40.968 14h-1.45l-1.35-3.94-1.35 3.94h-1.53zM51 8l2 2-2 2-2-2z"/></svg>